<svg width="48" height="48" viewBox="0 0 48 48" fill="none" xmlns="http://www.w3.org/2000/svg">
<rect width="48" height="48" rx="10" fill="#143C61"/>
<path d="M24 36C22.34 36 20.78 35.6848 19.32 35.0544C17.86 34.424 16.59 33.5692 15.51 32.49C14.43 31.4108 13.5752 30.1408 12.9456 28.68C12.316 27.2192 12.0008 25.6592 12 24C11.9992 22.3408 12.3144 20.7808 12.9456 19.32C13.5768 17.8592 14.4316 16.5892 15.51 15.51C16.5884 14.4308 17.8584 13.576 19.32 12.9456C20.7816 12.3152 22.3416 12 24 12C25.6584 12 27.2184 12.3152 28.68 12.9456C30.1416 13.576 31.4116 14.4308 32.49 15.51C33.5684 16.5892 34.4236 17.8592 35.0556 19.32C35.6876 20.7808 36.0024 22.3408 36 24V25.74C36 26.92 35.5952 27.9252 34.7856 28.7556C33.976 29.586 32.9808 30.0008 31.8 30C31.1 30 30.44 29.85 29.82 29.55C29.2 29.25 28.68 28.82 28.26 28.26C27.68 28.84 27.0248 29.2752 26.2944 29.5656C25.564 29.856 24.7992 30.0008 24 30C22.34 30 20.9252 29.4148 19.7556 28.2444C18.586 27.074 18.0008 25.6592 18 24C17.9992 22.3408 18.5844 20.926 19.7556 19.7556C20.9268 18.5852 22.3416 18 24 18C25.6584 18 27.0736 18.5852 28.2456 19.7556C29.4176 20.926 30.0024 22.3408 30 24V25.74C30 26.26 30.17 26.7 30.51 27.06C30.85 27.42 31.28 27.6 31.8 27.6C32.32 27.6 32.75 27.42 33.09 27.06C33.43 26.7 33.6 26.26 33.6 25.74V24C33.6 21.32 32.67 19.05 30.81 17.19C28.95 15.33 26.68 14.4 24 14.4C21.32 14.4 19.05 15.33 17.19 17.19C15.33 19.05 14.4 21.32 14.4 24C14.4 26.68 15.33 28.95 17.19 30.81C19.05 32.67 21.32 33.6 24 33.6H28.8C29.14 33.6 29.4252 33.7152 29.6556 33.9456C29.886 34.176 30.0008 34.4608 30 34.8C29.9992 35.1392 29.884 35.4244 29.6544 35.6556C29.4248 35.8868 29.14 36.0016 28.8 36H24ZM24 27.6C25 27.6 25.85 27.25 26.55 26.55C27.25 25.85 27.6 25 27.6 24C27.6 23 27.25 22.15 26.55 21.45C25.85 20.75 25 20.4 24 20.4C23 20.4 22.15 20.75 21.45 21.45C20.75 22.15 20.4 23 20.4 24C20.4 25 20.75 25.85 21.45 26.55C22.15 27.25 23 27.6 24 27.6Z" fill="white"/>
</svg>
