<svg width="16" height="16" viewBox="0 0 16 16" fill="none" xmlns="http://www.w3.org/2000/svg">
<path d="M8.20728 0.150859L9.81092 5.24177C9.88121 5.46638 10.005 5.67057 10.1715 5.83683C10.3381 6.00309 10.5425 6.12645 10.7673 6.19631L15.8491 7.80177C15.8933 7.81505 15.932 7.84221 15.9595 7.87921C15.987 7.91622 16.0019 7.96111 16.0019 8.00722C16.0019 8.05334 15.987 8.09822 15.9595 8.13523C15.932 8.17224 15.8933 8.1994 15.8491 8.21268L10.7673 9.81813C10.5425 9.888 10.3381 10.0114 10.1715 10.1776C10.005 10.3439 9.88121 10.5481 9.81092 10.7727L8.20728 15.8636C8.19345 15.9075 8.16598 15.9458 8.12887 15.973C8.09176 16.0003 8.04694 16.0149 8.00092 16.0149C7.95489 16.0149 7.91007 16.0003 7.87296 15.973C7.83585 15.9458 7.80839 15.9075 7.79456 15.8636L6.1891 10.7727C6.11829 10.5486 5.99459 10.3449 5.82845 10.1788C5.6623 10.0126 5.4586 9.88894 5.23455 9.81813L0.143643 8.21268C0.100422 8.19841 0.0628047 8.17087 0.0361384 8.13398C0.00947205 8.0971 -0.00488281 8.05274 -0.00488281 8.00722C-0.00488281 7.96171 0.00947205 7.91735 0.0361384 7.88046C0.0628047 7.84358 0.100422 7.81604 0.143643 7.80177L5.23455 6.19631C5.4586 6.12551 5.6623 6.00181 5.82845 5.83566C5.99459 5.66951 6.11829 5.46581 6.1891 5.24177L7.79456 0.150859C7.80839 0.106964 7.83585 0.0686213 7.87296 0.041404C7.91007 0.0141867 7.95489 -0.000488281 8.00092 -0.000488281C8.04694 -0.000488281 8.09176 0.0141867 8.12887 0.041404C8.16598 0.0686213 8.19345 0.106964 8.20728 0.150859Z" fill="#D6F85B"/>
</svg>
