<svg width="48" height="48" viewBox="0 0 48 48" fill="none" xmlns="http://www.w3.org/2000/svg">
<rect width="48" height="48" rx="10" fill="#143C61"/>
<path d="M18.75 14.8125H34.5C35.8924 14.8125 37.2277 15.3656 38.2123 16.3502C39.1969 17.3348 39.75 18.6701 39.75 20.0625C39.75 21.4549 39.1969 22.7902 38.2123 23.7748C37.2277 24.7594 35.8924 25.3125 34.5 25.3125H13.5C12.1076 25.3125 10.7723 25.8656 9.78769 26.8502C8.80312 27.8348 8.25 29.1701 8.25 30.5625C8.25 31.9549 8.80312 33.2902 9.78769 34.2748C10.7723 35.2594 12.1076 35.8125 13.5 35.8125H34.5M18.75 14.8125C18.75 16.2049 18.1969 17.5402 17.2123 18.5248C16.2277 19.5094 14.8924 20.0625 13.5 20.0625C12.1076 20.0625 10.7723 19.5094 9.78769 18.5248C8.80312 17.5402 8.25 16.2049 8.25 14.8125C8.25 13.4201 8.80312 12.0848 9.78769 11.1002C10.7723 10.1156 12.1076 9.5625 13.5 9.5625C14.8924 9.5625 16.2277 10.1156 17.2123 11.1002C18.1969 12.0848 18.75 13.4201 18.75 14.8125ZM38 35.8125L34.5 38.4375V33.1875L38 35.8125Z" stroke="white" stroke-width="2" stroke-linecap="square"/>
</svg>
