<svg width="24" height="29" viewBox="0 0 24 29" fill="none" xmlns="http://www.w3.org/2000/svg">
<path d="M17.558 14.3188L14.5623 6.75458L12.0362 11.1771L9.51015 6.75458L6.51438 14.3212H5.64861V15.4582H10.1598V14.3212H9.49204L10.1417 12.4422L12.0362 15.5476L13.9308 12.4422L14.5804 14.3212H13.9126V15.4582H18.4419V14.3212L17.558 14.3188ZM24 12.0084C24.0008 10.4312 23.6909 8.86934 23.0881 7.41206C22.4854 5.95477 21.6015 4.63066 20.487 3.51541C19.3726 2.40017 18.0494 1.51567 16.5931 0.91247C15.1369 0.309272 13.5761 -0.000792593 12 1.52151e-06C5.37814 1.52151e-06 0 5.38071 0 12.0084C0 15.3313 1.35359 18.328 3.51861 20.4945C3.65418 20.6314 3.82737 20.7248 4.01615 20.7629C4.20492 20.801 4.40076 20.7821 4.57874 20.7085C4.75673 20.6349 4.90883 20.51 5.0157 20.3497C5.12257 20.1894 5.17938 20.0009 5.1789 19.8082C5.17866 19.545 5.07501 19.2924 4.89031 19.105C3.01449 17.2208 1.96339 14.6681 1.9682 12.0084C1.9682 6.46458 6.46004 1.95025 12 1.95025C17.5399 1.95025 22.0511 6.46458 22.0511 12.0084C22.0533 13.3298 21.7946 14.6385 21.2898 15.8595C20.785 17.0804 20.0441 18.1896 19.1097 19.1231L10.6283 27.6092L12 29L20.4995 20.4945C21.6126 19.3804 22.4949 18.0572 23.0956 16.6009C23.6963 15.1446 24.0037 13.5839 24 12.0084Z" fill="#FF0000"/>
</svg>
