<svg width="48" height="48" viewBox="0 0 48 48" fill="none" xmlns="http://www.w3.org/2000/svg">
<rect width="48" height="48" rx="10" fill="#143C61"/>
<path d="M26.1984 29.4816C26.4462 29.5954 26.7254 29.6214 26.99 29.5553C27.2546 29.4892 27.4888 29.335 27.654 29.118L28.08 28.56C28.3036 28.2619 28.5934 28.02 28.9267 27.8534C29.2599 27.6867 29.6274 27.6 30 27.6H33.6C34.2365 27.6 34.847 27.8529 35.2971 28.3029C35.7471 28.753 36 29.3635 36 30V33.6C36 34.2365 35.7471 34.847 35.2971 35.2971C34.847 35.7471 34.2365 36 33.6 36C27.8713 36 22.3773 33.7243 18.3265 29.6735C14.2757 25.6227 12 20.1287 12 14.4C12 13.7635 12.2529 13.153 12.7029 12.7029C13.153 12.2529 13.7635 12 14.4 12H18C18.6365 12 19.247 12.2529 19.6971 12.7029C20.1471 13.153 20.4 13.7635 20.4 14.4V18C20.4 18.3726 20.3133 18.7401 20.1466 19.0733C19.98 19.4066 19.7381 19.6964 19.44 19.92L18.8784 20.3412C18.6581 20.5094 18.5028 20.7487 18.4389 21.0184C18.3751 21.2881 18.4065 21.5717 18.528 21.8208C20.168 25.1518 22.8653 27.8458 26.1984 29.4816Z" stroke="white" stroke-width="2" stroke-linecap="round" stroke-linejoin="round"/>
</svg>
