<svg width="40" height="39" viewBox="0 0 40 39" fill="none" xmlns="http://www.w3.org/2000/svg">
<path d="M20 7.90446C13.5089 7.90446 8.23214 13.0493 8.22321 19.3781C8.22321 21.5458 8.84822 23.6612 10.0268 25.4806L10.3036 25.9158L9.11607 30.1467L13.5714 29.0063L14 29.2587C15.8036 30.3034 17.875 30.8605 19.9911 30.8605H20C26.4821 30.8605 31.9018 25.7156 31.9018 19.3868C31.9018 16.3225 30.5446 13.4411 28.3214 11.2734C26.0893 9.0971 23.1429 7.90446 20 7.90446ZM26.9196 24.3054C26.625 25.115 25.2143 25.8462 24.5357 25.942C23.4107 26.1074 22.5357 26.0203 20.2946 25.0801C16.75 23.5828 14.4286 20.1007 14.25 19.8743C14.0714 19.648 12.8036 18.0027 12.8036 16.3051C12.8036 14.6076 13.7143 13.7719 14.0446 13.4237C14.3661 13.0754 14.75 12.9884 14.9911 12.9884C15.2232 12.9884 15.4643 12.9884 15.6696 12.9971C15.8839 13.0058 16.1786 12.9188 16.4643 13.5891C16.7589 14.2768 17.4643 15.9743 17.5536 16.1484C17.6429 16.3225 17.7054 16.5228 17.5804 16.7491C16.9018 18.0723 16.1786 18.0201 16.5446 18.6295C17.9107 20.919 19.2768 21.7112 21.3571 22.7297C21.7143 22.9038 21.9196 22.8777 22.125 22.6426C22.3304 22.4163 23.0089 21.6328 23.2411 21.2933C23.4732 20.9451 23.7143 21.006 24.0357 21.1192C24.3571 21.2324 26.0982 22.0681 26.4554 22.2422C26.8125 22.4163 27.0446 22.5033 27.1339 22.6426C27.2143 22.808 27.2143 23.5045 26.9196 24.3054ZM35.7143 0H4.28571C1.91964 0 0 1.87165 0 4.17857V34.8214C0 37.1283 1.91964 39 4.28571 39H35.7143C38.0804 39 40 37.1283 40 34.8214V4.17857C40 1.87165 38.0804 0 35.7143 0ZM19.9911 33.1848C17.6161 33.1848 15.2857 32.6016 13.2232 31.5047L5.71429 33.4286L7.72321 26.2728C6.48214 24.1835 5.83036 21.8069 5.83036 19.3694C5.83929 11.7609 12.1875 5.57143 19.9911 5.57143C23.7768 5.57143 27.3304 7.00781 30.0089 9.61942C32.6786 12.231 34.2857 15.6958 34.2857 19.3868C34.2857 26.9953 27.7946 33.1848 19.9911 33.1848Z" fill="white"/>
</svg>
