<svg width="50" height="46" viewBox="0 0 50 46" fill="none" xmlns="http://www.w3.org/2000/svg">
<path d="M47 9.53674e-06H23C21.3457 9.53674e-06 20 1.34571 20 3.00099L20.0278 26.8541C19.4284 26.5891 18.7992 26.3812 18.1453 26.2376C16.2695 23.5839 13.2656 22 10 22C4.48584 22 0 26.4858 0 32C0 36.7191 3.27051 40.7466 7.83234 41.7506C9.64441 44.3165 12.6267 46 16 46C17.6797 46 19.2614 45.5792 20.6525 44.8445C21.2101 45.5486 22.0652 46 23 46H47C48.6543 46 50 44.6543 50 43V23C50 22.4478 49.5522 22 49 22C48.4478 22 48 22.4478 48 23V43C48 43.5513 47.5513 44 47 44H23C22.7458 44 22.5137 43.8951 22.3337 43.7313C23.0666 43.1298 23.7113 42.4255 24.249 41.6419C24.4324 41.8565 24.6956 42 25 42H29C29.5522 42 30 41.5522 30 41V37C30 36.4478 29.5522 36 29 36H26C26 35.3152 25.9302 34.6464 25.7985 34H29C29.5522 34 30 33.5522 30 33V29C30 28.4477 29.5522 28 29 28H25C24.4478 28 24 28.4477 24 29V30.0253C23.4382 29.275 22.7755 28.6077 22.0292 28.0408L22 3C22 2.44873 22.4487 2 23 2H47C47.5513 2 48 2.44873 48 3V15C48 15.5522 48.4478 16 49 16C49.5522 16 50 15.5522 50 15V3C50 1.3457 48.6543 9.53674e-06 47 9.53674e-06ZM28 38V40H26V38H28ZM26 30H28V32H26V30ZM2 32C2 27.5889 5.58887 24 10 24C11.9962 24 13.8713 24.7407 15.3168 26.0346C10.1214 26.3883 6 30.7164 6 36C6 37.1259 6.19562 38.2048 6.54016 39.2155C3.81903 37.9179 2 35.1498 2 32ZM24 36C24 38.7477 22.6068 41.1754 20.4904 42.6164C20.4778 42.6249 20.4656 42.6326 20.4536 42.6417C19.1796 43.4987 17.6474 44 16 44C11.5889 44 8.00001 40.4111 8.00001 36C8.00001 31.5889 11.5889 28 16 28C20.4111 28 24 31.5889 24 36Z" fill="white"/>
<path d="M45 36H41C40.4477 36 40 36.4477 40 37V41C40 41.5522 40.4477 42 41 42H45C45.5522 42 46 41.5522 46 41V37C46 36.4477 45.5522 36 45 36ZM44 40H42V38H44V40Z" fill="white"/>
<path d="M37 36H33C32.4477 36 32 36.4477 32 37V41C32 41.5522 32.4477 42 33 42H37C37.5522 42 38 41.5522 38 41V37C38 36.4477 37.5522 36 37 36ZM36 40H34V38H36V40Z" fill="white"/>
<path d="M46 29C46 28.4477 45.5522 28 45 28H41C40.4477 28 40 28.4477 40 29V33C40 33.5522 40.4477 34 41 34H45C45.5522 34 46 33.5522 46 33V29ZM44 32H42V30H44V32Z" fill="white"/>
<path d="M38 29C38 28.4477 37.5522 28 37 28H33C32.4477 28 32 28.4477 32 29V33C32 33.5522 32.4477 34 33 34H37C37.5522 34 38 33.5522 38 33V29ZM36 32H34V30H36V32Z" fill="white"/>
<path d="M46 21C46 20.4477 45.5522 20 45 20H41C40.4477 20 40 20.4477 40 21V25C40 25.5522 40.4477 26 41 26H45C45.5522 26 46 25.5522 46 25V21ZM44 24H42V22H44V24Z" fill="white"/>
<path d="M38 21C38 20.4477 37.5522 20 37 20H33C32.4477 20 32 20.4477 32 21V25C32 25.5522 32.4477 26 33 26H37C37.5522 26 38 25.5522 38 25V21ZM36 24H34V22H36V24Z" fill="white"/>
<path d="M25 20C24.4477 20 24 20.4477 24 21V25C24 25.5522 24.4477 26 25 26H29C29.5522 26 30 25.5522 30 25V21C30 20.4477 29.5522 20 29 20H25ZM28 24H26V22H28V24Z" fill="white"/>
<path d="M45 4H25C24.45 4 24 4.45001 24 5V17C24 17.55 24.45 18 25 18H45C45.55 18 46 17.55 46 17V5C46 4.45001 45.55 4 45 4ZM44 16H26V6H44V16Z" fill="white"/>
<path d="M15.2358 34H18C18.5522 34 19 33.5522 19 33C19 32.4478 18.5522 32 18 32H17V31C17 30.4477 16.5522 30 16 30C15.4478 30 15 30.4477 15 31V32.0239C13.8791 32.1436 13 33.0837 13 34.2358C13 35.0879 13.4736 35.8545 14.2358 36.2363L16.8691 37.5522C16.9487 37.5923 17 37.6753 17 37.7642C17 37.894 16.894 38 16.7642 38H14C13.4477 38 13 38.4478 13 39C13 39.5522 13.4477 40 14 40H15V41C15 41.5522 15.4478 42 16 42C16.5522 42 17 41.5522 17 41V39.9761C18.1209 39.8564 19 38.9163 19 37.7642C19 36.9121 18.5264 36.1455 17.7642 35.7637L15.1309 34.4478C15.0513 34.4077 15 34.3247 15 34.2358C15 34.106 15.106 34 15.2358 34Z" fill="white"/>
<path d="M40 10V13C40 13.5522 40.4477 14 41 14C41.5522 14 42 13.5522 42 13V9C42 8.44775 41.5522 8 41 8H40C39.4477 8 39 8.44775 39 9C39 9.55225 39.4477 10 40 10Z" fill="white"/>
<path d="M29 10V13C29 13.5522 29.4477 14 30 14C30.5522 14 31 13.5522 31 13V9C31 8.44775 30.5522 8 30 8H29C28.4477 8 28 8.44775 28 9C28 9.55225 28.4477 10 29 10Z" fill="white"/>
<path d="M33 12H34V13C34 13.5522 34.4478 14 35 14C35.5522 14 36 13.5522 36 13V12H37C37.5522 12 38 11.5522 38 11C38 10.4478 37.5522 10 37 10H36V9C36 8.44775 35.5522 8 35 8C34.4478 8 34 8.44775 34 9V10H33C32.4477 10 32 10.4478 32 11C32 11.5522 32.4477 12 33 12Z" fill="white"/>
<path d="M49 20C49.5523 20 50 19.5523 50 19C50 18.4477 49.5523 18 49 18C48.4477 18 48 18.4477 48 19C48 19.5523 48.4477 20 49 20Z" fill="white"/>
</svg>
