<svg width="36" height="45" viewBox="0 0 36 45" fill="none" xmlns="http://www.w3.org/2000/svg">
<path d="M24.1093 0.490291C24.2096 0.506124 24.3099 0.521956 24.4131 0.538268C31.5 1.65739 31.947 2.19478 35.3775 4.02322C35.39 4.22967 35.3937 4.43666 35.3941 4.64349C35.3946 4.77793 35.3952 4.91238 35.3957 5.0509C35.3956 5.19976 35.3956 5.34862 35.3955 5.502C35.3962 5.73574 35.3962 5.73574 35.3968 5.97422C35.3979 6.40361 35.3982 6.83301 35.3983 7.2624C35.3984 7.53152 35.3986 7.80063 35.3989 8.06974C35.4001 9.01124 35.4006 9.95274 35.4005 10.8942C35.4004 11.7669 35.4017 12.6395 35.4037 13.5121C35.4053 14.2639 35.406 15.0157 35.4059 15.7675C35.4059 16.2152 35.4062 16.6629 35.4075 17.1107C35.414 19.4586 35.4119 21.7934 34.8579 24.0896C34.8314 24.202 34.8049 24.3144 34.7776 24.4302C33.3085 30.4465 29.8107 35.9834 24.8306 39.7244C24.7432 39.7904 24.6558 39.8564 24.5658 39.9243C21.3745 42.3276 21.3745 42.3276 20.8599 42.3276C20.8599 33.8188 20.8599 25.3101 20.8599 16.5434C21.8427 16.5434 22.8254 16.5434 23.8379 16.5434C23.8379 23.1296 23.8379 29.7157 23.8379 36.5014C27.9017 32.949 30.5634 28.7987 31.8722 23.5473C31.9092 23.4021 31.9092 23.4021 31.947 23.2539C32.4537 21.1066 32.4335 18.9244 32.4238 16.7323C32.4233 16.4214 32.423 16.1105 32.4227 15.7997C32.4218 14.989 32.4193 14.1784 32.4166 13.3677C32.4139 12.5375 32.4129 11.7072 32.4117 10.877C32.409 9.25353 32.4048 7.63008 32.3995 6.00662C31.9156 5.8298 31.4313 5.65399 30.9469 5.47833C30.8122 5.42908 30.6774 5.37983 30.5385 5.32908C28.234 4.49509 25.89 3.88527 23.4657 3.52737C23.346 3.50884 23.2264 3.4903 23.1032 3.4712C19.0754 2.86589 14.9444 2.99033 10.9334 3.65134C10.8061 3.67191 10.6788 3.69248 10.5477 3.71368C8.17919 4.11513 5.73027 4.8769 3.52371 5.83053C3.38925 5.88864 3.25479 5.94675 3.11625 6.00662C3.10456 7.82796 3.09586 9.6493 3.09054 11.4707C3.088 12.3167 3.08455 13.1628 3.07881 14.0088C3.07325 14.8279 3.07044 15.6469 3.06916 16.466C3.06826 16.7758 3.06649 17.0857 3.06377 17.3956C3.00586 24.2918 5.39896 30.3072 10.1889 35.2618C10.4446 35.499 10.7039 35.7279 10.9717 35.9513C11.1752 36.1241 11.3649 36.3127 11.5538 36.5014C11.5948 29.3835 11.6357 22.2655 11.6779 14.9319C10.3676 14.9319 9.05729 14.9319 7.70728 14.9319C7.70728 13.9501 7.70728 12.9684 7.70728 11.9568C10.0003 11.9568 12.2933 11.9568 14.6559 11.9568C14.6559 21.9792 14.6559 32.0016 14.6559 42.3276C14.1081 42.1087 13.6585 41.8557 13.1746 41.5296C13.0932 41.475 13.0118 41.4203 12.9279 41.364C12.064 40.7761 11.2442 40.1394 10.4371 39.4765C10.3656 39.418 10.2941 39.3596 10.2205 39.2993C8.60909 37.9733 7.12731 36.5403 5.84605 34.8899C5.74848 34.7697 5.65091 34.6496 5.55039 34.5257C1.93168 29.9925 -0.0176662 24.1899 0.000120649 18.4057C0.00010253 18.2496 8.44118e-05 18.0934 6.57424e-05 17.9325C3.04287e-05 17.5082 0.000755204 17.0839 0.00162585 16.6596C0.00240633 16.2147 0.00247488 15.7699 0.00262175 15.325C0.003006 14.4843 0.00402204 13.6436 0.00527053 12.8029C0.00666183 11.8451 0.0073411 10.8873 0.00796285 9.92942C0.00925664 7.96069 0.0114364 5.99195 0.0142071 4.02322C0.450221 3.82319 0.886539 3.62384 1.32291 3.4246C1.44558 3.36831 1.56824 3.31203 1.69462 3.25404C2.58706 2.84711 3.47566 2.49133 4.41136 2.19478C4.62207 2.12676 4.62207 2.12676 4.83704 2.05738C11.0272 0.0883298 17.6763 -0.540726 24.1093 0.490291Z" fill="#16395B"/>
<path d="M4.88379 7.32572C13.4796 7.32572 22.0753 7.32572 30.9316 7.32572C30.9316 8.31274 30.9316 9.29976 30.9316 10.3167C27.1202 10.3167 23.3089 10.3167 19.3821 10.3167C19.3885 11.3208 19.3949 12.3248 19.4016 13.3593C19.4213 16.5714 19.435 19.7834 19.4448 22.9955C19.4464 23.4943 19.4479 23.9932 19.4496 24.4921C19.4499 24.5914 19.4502 24.6907 19.4505 24.793C19.4559 26.4015 19.4656 28.0099 19.4769 29.6183C19.4884 31.2685 19.4952 32.9187 19.4977 34.569C19.4994 35.5874 19.5047 36.6057 19.5147 37.6242C19.5219 38.4049 19.5227 39.1855 19.5211 39.9662C19.5214 40.2867 19.5238 40.6071 19.5285 40.9275C19.5346 41.3646 19.5332 41.801 19.5298 42.2381C19.5334 42.3654 19.537 42.4927 19.5407 42.6239C19.5331 42.987 19.5149 43.2535 19.3821 43.5913C18.9095 44.0265 18.4114 44.3233 17.7695 44.3624C16.7938 43.9536 16.7938 43.9536 16.4333 43.5913C16.2877 43.147 16.3046 42.7178 16.3151 42.2531C16.3142 42.1167 16.3134 41.9803 16.3125 41.8398C16.3109 41.3817 16.3163 40.924 16.3217 40.466C16.322 40.1381 16.3218 39.8102 16.3213 39.4823C16.3207 38.7759 16.3238 38.0695 16.3293 37.3631C16.3373 36.3417 16.3399 35.3204 16.3411 34.2991C16.3433 32.642 16.3498 30.9849 16.3591 29.3278C16.3681 27.7182 16.3751 26.1086 16.3793 24.4989C16.3795 24.3997 16.3798 24.3005 16.3801 24.1982C16.3813 23.7004 16.3826 23.2026 16.3838 22.7048C16.394 18.5754 16.4121 14.4461 16.4333 10.3167C12.6219 10.3167 8.81061 10.3167 4.88379 10.3167C4.88379 9.32967 4.88379 8.34265 4.88379 7.32572Z" fill="#1D4D78"/>
<path d="M20.7568 11.8089C20.8773 11.8092 21.3941 11.8026 21.5182 11.8029C21.6542 11.8029 21.7903 11.8029 21.9305 11.8029C22.1525 11.8038 22.1525 11.8038 22.3789 11.8048C22.5296 11.8049 22.6803 11.8051 22.8355 11.8053C23.3189 11.8059 23.8024 11.8074 24.2858 11.8089C24.6126 11.8095 24.9394 11.81 25.2663 11.8105C26.0694 11.8117 26.8726 11.814 27.6758 11.8163C27.6758 12.752 27.6758 13.6878 27.6758 14.6519C25.3925 14.6519 23.1093 14.6519 20.7568 14.6519C20.7568 11.8227 20.7568 11.8089 20.7568 11.8089Z" fill="#1C4A74"/>
</svg>
