<svg width="127" height="45" viewBox="0 0 127 45" fill="none" xmlns="http://www.w3.org/2000/svg">
<path d="M24.1093 0.490291C24.2096 0.506124 24.3099 0.521956 24.4131 0.538268C31.5 1.65739 31.947 2.19478 35.3775 4.02322C35.39 4.22967 35.3937 4.43666 35.3941 4.64349C35.3946 4.77793 35.3952 4.91238 35.3957 5.0509C35.3956 5.19976 35.3956 5.34862 35.3955 5.502C35.3962 5.73574 35.3962 5.73574 35.3968 5.97422C35.3979 6.40361 35.3982 6.83301 35.3983 7.2624C35.3984 7.53152 35.3986 7.80063 35.3989 8.06974C35.4001 9.01124 35.4006 9.95274 35.4005 10.8942C35.4004 11.7669 35.4017 12.6395 35.4037 13.5121C35.4053 14.2639 35.406 15.0157 35.4059 15.7675C35.4059 16.2152 35.4062 16.6629 35.4075 17.1107C35.414 19.4586 35.4119 21.7934 34.8579 24.0896C34.8314 24.202 34.8049 24.3144 34.7776 24.4302C33.3085 30.4465 29.8107 35.9834 24.8306 39.7244C24.7432 39.7904 24.6558 39.8564 24.5658 39.9243C21.3745 42.3276 21.3745 42.3276 20.8599 42.3276C20.8599 33.8188 20.8599 25.3101 20.8599 16.5434C21.8427 16.5434 22.8254 16.5434 23.8379 16.5434C23.8379 23.1296 23.8379 29.7157 23.8379 36.5014C27.9017 32.949 30.5634 28.7987 31.8722 23.5473C31.9092 23.4021 31.9092 23.4021 31.947 23.2539C32.4537 21.1066 32.4335 18.9244 32.4238 16.7323C32.4233 16.4214 32.423 16.1105 32.4227 15.7997C32.4218 14.989 32.4193 14.1784 32.4166 13.3677C32.4139 12.5375 32.4129 11.7072 32.4117 10.877C32.409 9.25353 32.4048 7.63008 32.3995 6.00662C31.9156 5.8298 31.4313 5.65399 30.9469 5.47833C30.8122 5.42908 30.6774 5.37983 30.5385 5.32908C28.234 4.49509 25.89 3.88527 23.4657 3.52737C23.346 3.50884 23.2264 3.4903 23.1032 3.4712C19.0754 2.86589 14.9444 2.99033 10.9334 3.65134C10.8061 3.67191 10.6788 3.69248 10.5477 3.71368C8.17919 4.11513 5.73027 4.8769 3.52371 5.83053C3.38925 5.88864 3.25479 5.94675 3.11625 6.00662C3.10456 7.82796 3.09586 9.6493 3.09054 11.4707C3.088 12.3167 3.08455 13.1628 3.07881 14.0088C3.07325 14.8279 3.07044 15.6469 3.06916 16.466C3.06826 16.7758 3.06649 17.0857 3.06377 17.3956C3.00586 24.2918 5.39896 30.3072 10.1889 35.2618C10.4446 35.499 10.7039 35.7279 10.9717 35.9513C11.1752 36.1241 11.3649 36.3127 11.5538 36.5014C11.5948 29.3835 11.6357 22.2655 11.6779 14.9319C10.3676 14.9319 9.05729 14.9319 7.70728 14.9319C7.70728 13.9501 7.70728 12.9684 7.70728 11.9568C10.0003 11.9568 12.2933 11.9568 14.6559 11.9568C14.6559 21.9792 14.6559 32.0016 14.6559 42.3276C14.1081 42.1087 13.6585 41.8557 13.1746 41.5296C13.0932 41.475 13.0118 41.4203 12.9279 41.364C12.064 40.7761 11.2442 40.1394 10.4371 39.4765C10.3656 39.418 10.2941 39.3596 10.2205 39.2993C8.60909 37.9733 7.12731 36.5403 5.84605 34.8899C5.74848 34.7697 5.65091 34.6496 5.55039 34.5257C1.93168 29.9925 -0.0176662 24.1899 0.000120649 18.4057C0.00010253 18.2496 8.44118e-05 18.0934 6.57424e-05 17.9325C3.04287e-05 17.5082 0.000755204 17.0839 0.00162585 16.6596C0.00240633 16.2147 0.00247488 15.7699 0.00262175 15.325C0.003006 14.4843 0.00402204 13.6436 0.00527053 12.8029C0.00666183 11.8451 0.0073411 10.8873 0.00796285 9.92942C0.00925664 7.96069 0.0114364 5.99195 0.0142071 4.02322C0.450221 3.82319 0.886539 3.62384 1.32291 3.4246C1.44558 3.36831 1.56824 3.31203 1.69462 3.25404C2.58706 2.84711 3.47566 2.49133 4.41136 2.19478C4.62207 2.12676 4.62207 2.12676 4.83704 2.05738C11.0272 0.0883298 17.6763 -0.540726 24.1093 0.490291Z" fill="#16395B"/>
<path d="M4.88368 7.32572C13.4794 7.32572 22.0752 7.32572 30.9315 7.32572C30.9315 8.31274 30.9315 9.29976 30.9315 10.3167C27.1201 10.3167 23.3088 10.3167 19.382 10.3167C19.3884 11.3208 19.3948 12.3248 19.4015 13.3593C19.4212 16.5714 19.4349 19.7834 19.4447 22.9955C19.4463 23.4943 19.4478 23.9932 19.4495 24.4921C19.4498 24.5914 19.4501 24.6907 19.4504 24.793C19.4558 26.4015 19.4655 28.0099 19.4768 29.6183C19.4883 31.2685 19.4951 32.9187 19.4976 34.569C19.4993 35.5874 19.5046 36.6057 19.5146 37.6242C19.5218 38.4049 19.5226 39.1855 19.5209 39.9662C19.5213 40.2867 19.5237 40.6071 19.5284 40.9275C19.5345 41.3646 19.5331 41.801 19.5297 42.2381C19.5333 42.3654 19.5369 42.4927 19.5406 42.6239C19.533 42.987 19.5148 43.2535 19.382 43.5913C18.9094 44.0265 18.4113 44.3233 17.7693 44.3624C16.7936 43.9536 16.7936 43.9536 16.4332 43.5913C16.2876 43.147 16.3045 42.7178 16.315 42.2531C16.3141 42.1167 16.3133 41.9803 16.3124 41.8398C16.3108 41.3817 16.3162 40.924 16.3216 40.466C16.3219 40.1381 16.3217 39.8102 16.3211 39.4823C16.3206 38.7759 16.3237 38.0695 16.3292 37.3631C16.3372 36.3417 16.3398 35.3204 16.341 34.2991C16.3432 32.642 16.3497 30.9849 16.359 29.3278C16.368 27.7182 16.375 26.1086 16.3792 24.4989C16.3794 24.3997 16.3797 24.3005 16.38 24.1982C16.3812 23.7004 16.3825 23.2026 16.3837 22.7048C16.3939 18.5754 16.412 14.4461 16.4332 10.3167C12.6218 10.3167 8.81051 10.3167 4.88368 10.3167C4.88368 9.32967 4.88368 8.34265 4.88368 7.32572Z" fill="#1D4D78"/>
<path d="M20.7566 11.8089C20.8771 11.8092 21.3939 11.8026 21.518 11.8029C21.654 11.8029 21.7901 11.8029 21.9302 11.8029C22.1522 11.8038 22.1522 11.8038 22.3787 11.8048C22.5294 11.8049 22.68 11.8051 22.8352 11.8053C23.3187 11.8059 23.8021 11.8074 24.2856 11.8089C24.6124 11.8095 24.9392 11.81 25.266 11.8105C26.0692 11.8117 26.8724 11.814 27.6755 11.8163C27.6755 12.752 27.6755 13.6878 27.6755 14.6519C25.3923 14.6519 23.109 14.6519 20.7566 14.6519C20.7566 11.8227 20.7566 11.8089 20.7566 11.8089Z" fill="#1C4A74"/>
<path d="M107.506 20.7836C106.857 20.7836 106.592 20.7355 106.592 20.4229C106.592 19.9177 107.578 19.9177 107.578 18.8354L107.602 5.67848C107.602 4.52395 106.76 5.05311 106.76 4.30747C106.76 4.01884 107.001 3.94668 107.819 3.94668H110.753C111.138 3.94668 111.523 3.97073 111.523 4.30747C111.523 4.83664 110.561 4.69232 110.561 5.67848V10.032C110.561 10.7536 110.922 10.8258 111.379 10.8498L118.931 10.8258C119.34 10.8258 119.701 10.7777 119.701 10.1283V5.65443C119.701 4.62016 118.787 4.86069 118.787 4.30747C118.787 3.99479 119.22 3.94668 120.086 3.94668H122.491C123.02 3.94668 123.453 3.99479 123.453 4.30747C123.453 4.81258 122.563 4.74042 122.563 5.58227V19.0278C122.563 19.9899 123.549 19.8937 123.549 20.3507C123.549 20.7596 123.092 20.7836 122.274 20.7836H119.46C119.244 20.7836 118.715 20.7596 118.715 20.495C118.715 19.9899 119.725 19.9899 119.725 18.9797L119.629 14.2413C119.629 13.7362 119.388 13.5438 119.051 13.5438H111.234C110.873 13.5438 110.537 13.664 110.537 13.9286V18.8354C110.537 20.1342 111.619 19.7975 111.619 20.4229C111.619 20.7596 111.09 20.7836 110.489 20.7836H107.506Z" fill="#1D4D78"/>
<path d="M90.1845 20.7836C89.8478 20.7836 89.5111 20.7115 89.5111 20.3266C89.5111 19.7253 90.3289 19.9418 90.6896 18.8835L95.2597 5.70254C95.5483 4.83664 94.9229 4.86069 94.9229 4.40369C94.9229 4.06695 95.1394 3.94668 95.5002 3.94668H99.036C99.4208 3.94668 99.6373 4.06695 99.6373 4.40369C99.6373 4.93285 98.8436 4.86069 99.1803 5.70254L104.328 19.0037C104.688 19.9418 105.386 19.7734 105.386 20.3266C105.386 20.7355 105.145 20.7836 104.472 20.7836H101.586C101.032 20.7836 100.792 20.7355 100.792 20.3747C100.792 19.6772 101.634 19.9658 101.345 19.1481L100.912 17.9454C100.792 17.6087 100.599 17.5606 100.287 17.5606H94.4659C94.2254 17.5606 93.9368 17.6327 93.8165 17.8973L93.6 18.7392C93.2392 20.1342 93.9608 19.557 93.9608 20.3747C93.9608 20.7355 93.6 20.7836 92.9025 20.7836H90.1845ZM95.0432 15.1793H99.5651C99.8538 15.1793 99.9019 14.9148 99.8057 14.6502L97.4244 8.01161C97.3282 7.74702 97.1117 7.77108 97.0396 7.98755L94.7065 14.7464C94.6103 15.035 94.7546 15.1793 95.0432 15.1793Z" fill="#1D4D78"/>
<path d="M81.8941 20.7836C81.5333 20.7836 81.2928 20.7115 81.2928 20.3988C81.2928 19.9658 82.1347 19.9418 82.1347 19.0759L82.1828 6.95328C82.1828 6.52033 82.0865 6.2798 81.5093 6.2798L78.4065 6.25575C77.0114 6.25575 77.276 6.90518 76.819 6.90518C76.5063 6.90518 76.386 6.71275 76.386 6.01522V4.4999C76.386 4.091 76.5785 3.94668 77.0114 3.94668H89.8797C90.2164 3.94668 90.4569 4.091 90.4569 4.45179V5.79875C90.4569 6.71275 90.3126 7.00139 89.9999 7.00139C89.5189 7.00139 89.7353 6.2798 88.7973 6.2798H85.7185C85.2856 6.2798 85.0931 6.47223 85.0931 6.92923L85.0691 19.0999C85.0691 20.014 85.8869 19.9177 85.8869 20.3507C85.8869 20.7115 85.6704 20.7836 85.3096 20.7836H81.8941Z" fill="#1D4D78"/>
<path d="M58.2746 20.7835C57.6252 20.7835 57.3125 20.7595 57.3125 20.4708C57.3125 19.8695 58.2025 20.2303 58.2025 18.9555V6.25564C58.2025 4.42763 57.3366 5.0049 57.3366 4.40358C57.3366 3.99468 57.8176 3.94657 58.7076 3.94657H60.4394C61.4736 3.94657 61.8585 3.94657 61.8585 4.35547C61.8585 4.98084 60.9926 4.49979 60.9926 6.39996V14.169C60.9926 14.7222 61.2812 14.7944 61.5939 14.5058L70.1808 7.12154C70.4934 6.80886 70.6618 6.68859 70.6618 6.25564V5.48595C70.6618 4.54789 69.9643 4.78842 69.9643 4.30736C69.9643 3.87441 70.7821 3.94657 71.3593 3.94657H73.0671C73.8368 3.94657 74.1495 3.97062 74.1495 4.30736C74.1495 4.83653 73.3317 4.54789 73.3076 6.01511V18.3542C73.2595 20.2063 74.2216 19.7974 74.2216 20.4468C74.2216 20.7835 73.8127 20.7835 73.3317 20.7835H70.5175C69.8921 20.7835 69.6275 20.8316 69.6275 20.4468C69.6275 19.7733 70.6378 20.1341 70.6378 18.3542V11.1624C70.6378 10.6092 70.3491 10.4889 69.9162 10.8497L61.4977 17.9934C61.185 18.3061 61.0166 18.6669 61.0166 18.9315C61.0166 20.4227 61.8104 19.8455 61.8104 20.519C61.8104 20.7835 61.3774 20.7835 60.8002 20.7835H58.2746Z" fill="#1D4D78"/>
<path d="M47.2949 20.7836C46.9341 20.7836 46.6936 20.7115 46.6936 20.3988C46.6936 19.9658 47.5354 19.9418 47.5354 19.0759L47.5835 6.95328C47.5835 6.52033 47.4873 6.2798 46.9101 6.2798L43.8072 6.25575C42.4122 6.25575 42.6768 6.90518 42.2198 6.90518C41.9071 6.90518 41.7868 6.71275 41.7868 6.01522V4.4999C41.7868 4.091 41.9792 3.94668 42.4122 3.94668H55.2804C55.6172 3.94668 55.8577 4.091 55.8577 4.45179V5.79875C55.8577 6.71275 55.7134 7.00139 55.4007 7.00139C54.9196 7.00139 55.1361 6.2798 54.1981 6.2798H51.1193C50.6863 6.2798 50.4939 6.47223 50.4939 6.92923L50.4699 19.0999C50.4699 20.014 51.2877 19.9177 51.2877 20.3507C51.2877 20.7115 51.0712 20.7836 50.7104 20.7836H47.2949Z" fill="#1D4D78"/>
<path d="M108.812 33.8413C108.812 27.9243 113.214 24.9418 117.567 24.9658C121.849 25.0139 126.082 27.9243 126.082 33.8413C126.082 39.7343 121.656 42.6446 117.279 42.5725C113.021 42.5003 108.812 39.614 108.812 33.8413ZM111.698 33.8413C111.698 37.9062 114.513 39.9748 117.375 40.0229C120.309 40.071 123.268 38.0025 123.268 33.8413C123.268 29.6561 120.405 27.5635 117.543 27.5395C114.633 27.5154 111.698 29.608 111.698 33.8413Z" fill="#1D4D78"/>
<path d="M93.9614 42.1634C93.5525 42.1634 92.7828 42.1634 92.7828 41.7064C92.7828 41.105 93.6727 41.4418 93.6727 40.0227V27.2266C93.6727 26.0239 92.6866 26.3126 92.6866 25.7834C92.6866 25.3745 93.0233 25.3264 93.6727 25.3264H100.889C103.775 25.3264 105.795 26.962 105.795 29.704C105.795 31.3877 104.978 32.2777 104.545 32.6385C104.4 32.7587 104.376 32.9511 104.593 33.0474C105.29 33.36 106.878 34.4905 106.878 37.1363C106.878 39.8302 105.338 42.1634 102.067 42.1634H93.9614ZM96.9439 32.3498H101.009C102.067 32.3498 103.125 31.4118 103.125 29.9686C103.125 28.5254 102.115 27.7798 100.889 27.7798H97.0401C96.7034 27.7798 96.4629 27.8519 96.4629 28.2849L96.4148 31.7966C96.4148 32.1574 96.535 32.3498 96.9439 32.3498ZM96.8718 39.8062H101.49C103.029 39.8062 104.16 38.82 104.16 37.1363C104.16 35.2121 102.596 34.731 101.177 34.731H96.8237C96.6312 34.731 96.3907 34.7792 96.3907 35.1159L96.3666 39.2289C96.3666 39.6138 96.4148 39.8062 96.8718 39.8062Z" fill="#1D4D78"/>
<path d="M76.2783 42.1634C75.9416 42.1634 75.6048 42.0912 75.6048 41.7064C75.6048 41.105 76.4226 41.3215 76.7834 40.2632L81.3535 27.0823C81.6421 26.2164 81.0167 26.2404 81.0167 25.7834C81.0167 25.4467 81.2332 25.3264 81.594 25.3264H85.1298C85.5146 25.3264 85.7311 25.4467 85.7311 25.7834C85.7311 26.3126 84.9373 26.2404 85.2741 27.0823L90.4214 40.3835C90.7822 41.3215 91.4797 41.1531 91.4797 41.7064C91.4797 42.1153 91.2392 42.1634 90.5657 42.1634H87.6793C87.1261 42.1634 86.8856 42.1153 86.8856 41.7545C86.8856 41.0569 87.7275 41.3456 87.4388 40.5278L87.0059 39.3251C86.8856 38.9884 86.6932 38.9403 86.3805 38.9403H80.5597C80.3192 38.9403 80.0306 39.0124 79.9103 39.277L79.6938 40.1189C79.333 41.5139 80.0546 40.9367 80.0546 41.7545C80.0546 42.1153 79.6938 42.1634 78.9963 42.1634H76.2783ZM81.137 36.5591H85.6589C85.9476 36.5591 85.9957 36.2945 85.8994 36.0299L83.5182 29.3913C83.422 29.1267 83.2055 29.1508 83.1334 29.3673L80.8002 36.1261C80.704 36.4147 80.8484 36.5591 81.137 36.5591Z" fill="#1D4D78"/>
<path d="M61.5682 42.1635C60.9428 42.1635 60.4377 42.1395 60.4377 41.7787C60.4377 41.1293 61.472 41.4901 61.472 39.6861V27.6597C61.472 25.952 60.3656 26.409 60.3656 25.7595C60.3656 25.2785 60.7745 25.3266 61.6644 25.3266H69.674C72.6806 25.3266 75.3745 26.7216 75.3745 30.8106C75.3745 34.2983 73.4744 36.6314 69.3373 36.6314H65.0318C64.2862 36.6074 64.3102 36.7036 64.3102 37.1125V39.5658C64.3102 41.442 65.2964 41.2255 65.2964 41.8028C65.2964 42.1876 64.9356 42.1635 64.4064 42.1635H61.5682ZM64.7191 33.8894H69.193C71.5261 33.8894 72.5844 32.7589 72.5844 30.8347C72.5844 28.8383 71.0931 27.9724 69.0486 27.9724H65.0799C64.3343 27.9724 64.3102 27.9964 64.3102 29.0548V33.1919C64.3102 33.6008 64.2621 33.8894 64.7191 33.8894Z" fill="#1D4D78"/>
<path d="M43.8071 42.1634C43.0855 42.1634 42.7487 42.1393 42.7487 41.7304C42.7487 41.3215 43.8311 41.2494 43.8311 40.0948L43.8552 27.2506C43.8552 26.2404 42.9652 26.2645 42.9652 25.7112C42.9652 25.3745 43.3501 25.3264 43.9514 25.3264H56.7956C57.0842 25.3264 57.5172 25.3745 57.5172 25.7594C57.5172 26.4328 56.6272 26.1201 56.6272 27.3228L56.6513 40.0948C56.6513 41.3696 57.7336 41.2975 57.7336 41.8266C57.7336 42.1634 57.0361 42.1634 56.6513 42.1634H53.8371C53.1155 42.1634 52.7788 42.1393 52.7788 41.7304C52.7788 41.3215 53.8611 41.2494 53.8611 40.0948L53.8852 28.2849C53.8852 27.9722 53.7168 27.7798 53.356 27.7798H47.1504C46.7656 27.7798 46.6213 27.9963 46.6213 28.3811V40.0948C46.6213 41.3696 47.7036 41.2975 47.7036 41.8266C47.7036 42.1634 47.0061 42.1634 46.6213 42.1634H43.8071Z" fill="#1D4D78"/>
</svg>
