<svg width="192" height="68" viewBox="0 0 192 68" fill="none" xmlns="http://www.w3.org/2000/svg">
<path d="M36.7146 0.746634C36.8673 0.770744 37.0199 0.794854 37.1772 0.819694C50.7356 2.99111 50.2624 3.58672 53.8742 6.12671C53.8932 6.44111 53.8989 6.75631 53.8994 7.07127C53.9003 7.27601 53.9011 7.48076 53.9019 7.6917C53.9018 7.91839 53.9017 8.14508 53.9016 8.37864C53.9026 8.73461 53.9026 8.73461 53.9036 9.09776C53.9052 9.75166 53.9057 10.4056 53.9058 11.0595C53.9059 11.4693 53.9063 11.8791 53.9068 12.2889C53.9086 13.7227 53.9094 15.1564 53.9092 16.5902C53.9091 17.919 53.9111 19.2479 53.9141 20.5767C53.9166 21.7216 53.9175 22.8665 53.9174 24.0113C53.9174 24.6932 53.9179 25.375 53.9199 26.0568C53.9298 29.6323 53.9266 33.1878 53.0829 36.6846C53.0426 36.8557 53.0022 37.0269 52.9606 37.2032C50.7235 46.365 45.3968 54.7969 37.8129 60.4938C37.6798 60.5943 37.5468 60.6948 37.4097 60.7983C32.5499 64.4581 32.5499 64.4581 31.7663 64.4581C31.7663 51.5006 31.7663 38.5431 31.7663 25.193C33.2628 25.193 34.7594 25.193 36.3013 25.193C36.3013 35.2226 36.3013 45.2522 36.3013 55.5857C42.4898 50.1759 46.5431 43.8558 48.5362 35.8587C48.5926 35.6375 48.5926 35.6375 48.6501 35.4119C49.4217 32.1419 49.3909 28.8188 49.3761 25.4805C49.3754 25.0071 49.3749 24.5337 49.3745 24.0603C49.3731 22.8258 49.3694 21.5913 49.3652 20.3568C49.3611 19.0925 49.3596 17.8282 49.3577 16.5639C49.3537 14.0916 49.3473 11.6194 49.3392 9.14711C48.6023 8.87784 47.8647 8.6101 47.1271 8.3426C46.9219 8.2676 46.7167 8.1926 46.5052 8.11532C42.9958 6.84529 39.4263 5.91664 35.7344 5.37161C35.5522 5.34339 35.3701 5.31516 35.1824 5.28608C29.0487 4.36428 22.7579 4.55379 16.6498 5.56039C16.456 5.59172 16.2621 5.62305 16.0624 5.65533C12.4556 6.26668 8.72627 7.42672 5.36604 8.87894C5.16128 8.96744 4.95651 9.05593 4.74554 9.14711C4.72773 11.9207 4.71449 14.6943 4.70638 17.468C4.70252 18.7564 4.69727 20.0448 4.68852 21.3332C4.68007 22.5804 4.67577 23.8277 4.67383 25.075C4.67246 25.5468 4.66976 26.0187 4.66563 26.4906C4.57744 36.9924 8.22173 46.1529 15.5161 53.6979C15.9054 54.0592 16.3003 54.4078 16.7081 54.748C17.018 55.0111 17.307 55.2984 17.5946 55.5857C17.6569 44.7462 17.7193 33.9068 17.7835 22.7389C15.7881 22.7389 13.7928 22.7389 11.7369 22.7389C11.7369 21.2438 11.7369 19.7487 11.7369 18.2083C15.2288 18.2083 18.7208 18.2083 22.3185 18.2083C22.3185 33.4707 22.3185 48.7332 22.3185 64.4581C21.4843 64.1247 20.7996 63.7394 20.0628 63.2429C19.9388 63.1596 19.8149 63.0764 19.6872 62.9906C18.3715 62.0954 17.1231 61.1257 15.894 60.1163C15.7851 60.0272 15.6763 59.9382 15.5641 59.8465C13.1102 57.8271 10.8537 55.645 8.90258 53.1316C8.754 52.9486 8.60542 52.7656 8.45233 52.5771C2.94164 45.6738 -0.0269028 36.8373 0.000183729 28.0289C0.000156136 27.7911 0.000128545 27.5533 0.000100115 27.3083C4.6338e-05 26.6622 0.00115005 26.016 0.00247591 25.3699C0.00366445 24.6924 0.00376884 24.0149 0.0039925 23.3375C0.00457765 22.0572 0.0061249 20.777 0.00802615 19.4968C0.0101449 18.0381 0.0111793 16.5795 0.0121261 15.1209C0.0140963 12.1228 0.0174157 9.12477 0.0216351 6.12671C0.685613 5.8221 1.35005 5.51852 2.01458 5.2151C2.20138 5.12939 2.38818 5.04368 2.58064 4.95537C3.93967 4.33569 5.29287 3.79389 6.71777 3.34229C7.03866 3.23871 7.03866 3.23871 7.36602 3.13305C16.7926 0.134512 26.9181 -0.823437 36.7146 0.746634Z" fill="white"/>
<path d="M7.43573 11.1562C20.5257 11.1562 33.6156 11.1562 47.1022 11.1562C47.1022 12.6593 47.1022 14.1624 47.1022 15.711C41.2982 15.711 35.4942 15.711 29.5143 15.711C29.5241 17.2401 29.5339 18.7691 29.544 20.3445C29.574 25.2359 29.5948 30.1273 29.6098 35.0187C29.6122 35.7784 29.6146 36.5381 29.617 37.2978C29.6175 37.449 29.618 37.6003 29.6185 37.7561C29.6267 40.2055 29.6414 42.6549 29.6586 45.1043C29.6761 47.6173 29.6865 50.1302 29.6903 52.6433C29.6929 54.1942 29.701 55.745 29.7162 57.2959C29.7272 58.4848 29.7284 59.6735 29.7259 60.8625C29.7264 61.3504 29.7301 61.8384 29.7373 62.3263C29.7466 62.9919 29.7444 63.6565 29.7393 64.3222C29.7447 64.516 29.7502 64.7099 29.7558 64.9096C29.7443 65.4626 29.7165 65.8685 29.5143 66.3828C28.7946 67.0455 28.0361 67.4976 27.0585 67.5571C25.5727 66.9346 25.5727 66.9346 25.0237 66.3828C24.802 65.7063 24.8278 65.0526 24.8437 64.345C24.8424 64.1373 24.8412 63.9295 24.8398 63.7155C24.8374 63.018 24.8456 62.321 24.8538 61.6236C24.8542 61.1242 24.854 60.6248 24.8531 60.1255C24.8523 59.0497 24.857 57.974 24.8655 56.8983C24.8776 55.3429 24.8815 53.7877 24.8834 52.2323C24.8867 49.7088 24.8966 47.1854 24.9108 44.6619C24.9245 42.2107 24.9351 39.7595 24.9415 37.3082C24.9419 37.1571 24.9423 37.006 24.9427 36.8503C24.9446 36.0923 24.9465 35.3342 24.9484 34.5761C24.9639 28.2877 24.9915 21.9994 25.0237 15.711C19.2197 15.711 13.4156 15.711 7.43573 15.711C7.43573 14.2079 7.43573 12.7049 7.43573 11.1562Z" fill="#F8F8F8"/>
<path d="M31.6078 17.9828C31.7912 17.9832 32.5783 17.9732 32.7672 17.9736C32.9744 17.9737 33.1816 17.9737 33.395 17.9737C33.7331 17.9751 33.7331 17.9751 34.078 17.9765C34.3074 17.9768 34.5368 17.977 34.7732 17.9773C35.5094 17.9783 36.2456 17.9805 36.9818 17.9828C37.4795 17.9837 37.9772 17.9845 38.4749 17.9853C39.698 17.9871 40.9211 17.9906 42.1442 17.9941C42.1442 19.419 42.1442 20.844 42.1442 22.3122C38.6672 22.3122 35.1902 22.3122 31.6078 22.3122C31.6078 18.0039 31.6078 17.9828 31.6078 17.9828Z" fill="white"/>
<path d="M163.71 31.6497C162.721 31.6497 162.318 31.5765 162.318 31.1003C162.318 30.3311 163.82 30.3311 163.82 28.6828L163.857 8.64702C163.857 6.88885 162.575 7.69468 162.575 6.55919C162.575 6.11965 162.941 6.00977 164.186 6.00977H168.655C169.241 6.00977 169.827 6.04639 169.827 6.55919C169.827 7.36502 168.362 7.14525 168.362 8.64702V15.2768C168.362 16.3756 168.911 16.4855 169.607 16.5221L181.109 16.4855C181.731 16.4855 182.281 16.4123 182.281 15.4233V8.61039C182.281 7.03536 180.889 7.40165 180.889 6.55919C180.889 6.08302 181.548 6.00977 182.867 6.00977H186.53C187.335 6.00977 187.995 6.08302 187.995 6.55919C187.995 7.32839 186.639 7.21851 186.639 8.5005V28.9758C186.639 30.441 188.141 30.2945 188.141 30.9904C188.141 31.6131 187.445 31.6497 186.2 31.6497H181.914C181.585 31.6497 180.779 31.6131 180.779 31.2102C180.779 30.441 182.317 30.441 182.317 28.9026L182.171 21.6868C182.171 20.9176 181.805 20.6245 181.292 20.6245H169.387C168.838 20.6245 168.325 20.8077 168.325 21.2106V28.6828C168.325 30.6607 169.973 30.1479 169.973 31.1003C169.973 31.6131 169.168 31.6497 168.252 31.6497H163.71Z" fill="#F8F8F8"/>
<path d="M137.334 31.6497C136.821 31.6497 136.308 31.5398 136.308 30.9538C136.308 30.0381 137.553 30.3677 138.103 28.7561L145.062 8.68365C145.502 7.36502 144.549 7.40165 144.549 6.70571C144.549 6.19291 144.879 6.00977 145.428 6.00977H150.813C151.399 6.00977 151.729 6.19291 151.729 6.70571C151.729 7.51153 150.52 7.40165 151.033 8.68365L158.871 28.9392C159.421 30.3677 160.483 30.1113 160.483 30.9538C160.483 31.5765 160.117 31.6497 159.091 31.6497H154.695C153.853 31.6497 153.487 31.5765 153.487 31.027C153.487 29.9648 154.769 30.4043 154.329 29.159L153.67 27.3276C153.487 26.8148 153.194 26.7415 152.718 26.7415H143.853C143.487 26.7415 143.048 26.8514 142.864 27.2543L142.535 28.5363C141.985 30.6607 143.084 29.7817 143.084 31.027C143.084 31.5765 142.535 31.6497 141.473 31.6497H137.334ZM144.733 23.1153H151.619C152.058 23.1153 152.132 22.7124 151.985 22.3095L148.359 12.2C148.212 11.7971 147.883 11.8337 147.773 12.1634L144.22 22.456C144.073 22.8955 144.293 23.1153 144.733 23.1153Z" fill="#F8F8F8"/>
<path d="M124.709 31.6497C124.159 31.6497 123.793 31.5398 123.793 31.0637C123.793 30.4044 125.075 30.3677 125.075 29.0491L125.148 10.5883C125.148 9.92902 125.002 9.56273 124.123 9.56273L119.398 9.5261C117.273 9.5261 117.676 10.5151 116.98 10.5151C116.504 10.5151 116.321 10.222 116.321 9.15982V6.85222C116.321 6.22954 116.614 6.00977 117.273 6.00977H136.869C137.382 6.00977 137.748 6.22954 137.748 6.77897V8.83016C137.748 10.222 137.529 10.6616 137.052 10.6616C136.32 10.6616 136.65 9.56273 135.221 9.56273H130.533C129.873 9.56273 129.58 9.85576 129.58 10.5517L129.544 29.0857C129.544 30.4776 130.789 30.3311 130.789 30.9904C130.789 31.5398 130.459 31.6497 129.91 31.6497H124.709Z" fill="#F8F8F8"/>
<path d="M88.7389 31.6497C87.75 31.6497 87.2738 31.6131 87.2738 31.1736C87.2738 30.2579 88.6291 30.8073 88.6291 28.866V9.52613C88.6291 6.74237 87.3104 7.62145 87.3104 6.70574C87.3104 6.08306 88.043 6.0098 89.3983 6.0098H92.0355C93.6105 6.0098 94.1966 6.0098 94.1966 6.63248C94.1966 7.58482 92.878 6.85225 92.878 9.7459V21.5769C92.878 22.4194 93.3175 22.5293 93.7937 22.0897L106.87 10.8448C107.346 10.3686 107.603 10.1854 107.603 9.52613V8.35402C107.603 6.92551 106.54 7.2918 106.54 6.55922C106.54 5.89991 107.786 6.0098 108.665 6.0098H111.265C112.438 6.0098 112.914 6.04643 112.914 6.55922C112.914 7.36505 111.668 6.92551 111.632 9.15985V27.9503C111.559 30.7707 113.024 30.148 113.024 31.1369C113.024 31.6497 112.401 31.6497 111.668 31.6497H107.383C106.431 31.6497 106.028 31.723 106.028 31.1369C106.028 30.1113 107.566 30.6608 107.566 27.9503V16.9983C107.566 16.1559 107.126 15.9728 106.467 16.5222L93.6472 27.4008C93.171 27.877 92.9146 28.4264 92.9146 28.8294C92.9146 31.1003 94.1233 30.2212 94.1233 31.2468C94.1233 31.6497 93.464 31.6497 92.5849 31.6497H88.7389Z" fill="#F8F8F8"/>
<path d="M72.0191 31.6497C71.4697 31.6497 71.1034 31.5398 71.1034 31.0637C71.1034 30.4044 72.3854 30.3677 72.3854 29.0491L72.4586 10.5883C72.4586 9.92902 72.3121 9.56273 71.433 9.56273L66.708 9.5261C64.5835 9.5261 64.9864 10.5151 64.2905 10.5151C63.8143 10.5151 63.6312 10.222 63.6312 9.15982V6.85222C63.6312 6.22954 63.9242 6.00977 64.5835 6.00977H84.1798C84.6926 6.00977 85.0588 6.22954 85.0588 6.77897V8.83016C85.0588 10.222 84.8391 10.6616 84.3629 10.6616C83.6303 10.6616 83.96 9.56273 82.5315 9.56273H77.843C77.1837 9.56273 76.8907 9.85576 76.8907 10.5517L76.8541 29.0857C76.8541 30.4776 78.0994 30.3311 78.0994 30.9904C78.0994 31.5398 77.7698 31.6497 77.2203 31.6497H72.0191Z" fill="#F8F8F8"/>
<path d="M165.701 51.5347C165.701 42.5241 172.404 37.9821 179.034 38.0188C185.554 38.092 192.001 42.5241 192.001 51.5347C192.001 60.5087 185.261 64.9407 178.595 64.8308C172.111 64.721 165.701 60.3255 165.701 51.5347ZM170.097 51.5347C170.097 57.7249 174.382 60.875 178.741 60.9482C183.21 61.0215 187.715 57.8714 187.715 51.5347C187.715 45.1613 183.356 41.9747 178.998 41.938C174.565 41.9014 170.097 45.0881 170.097 51.5347Z" fill="#F8F8F8"/>
<path d="M143.087 64.2083C142.464 64.2083 141.292 64.2083 141.292 63.5124C141.292 62.5967 142.647 63.1095 142.647 60.9484V41.462C142.647 39.6306 141.146 40.0701 141.146 39.2643C141.146 38.6416 141.658 38.5684 142.647 38.5684H153.636C158.031 38.5684 161.108 41.0591 161.108 45.2347C161.108 47.7987 159.863 49.154 159.203 49.7034C158.984 49.8866 158.947 50.1796 159.277 50.3261C160.339 50.8023 162.756 52.5238 162.756 56.553C162.756 60.6553 160.412 64.2083 155.431 64.2083H143.087ZM147.629 49.2639H153.819C155.431 49.2639 157.042 47.8354 157.042 45.6377C157.042 43.44 155.504 42.3045 153.636 42.3045H147.775C147.263 42.3045 146.896 42.4144 146.896 43.0737L146.823 48.4214C146.823 48.9709 147.006 49.2639 147.629 49.2639ZM147.519 60.6187H154.552C156.896 60.6187 158.617 59.117 158.617 56.553C158.617 53.6227 156.237 52.8901 154.075 52.8901H147.446C147.153 52.8901 146.786 52.9634 146.786 53.4762L146.75 59.7396C146.75 60.3257 146.823 60.6187 147.519 60.6187Z" fill="#F8F8F8"/>
<path d="M116.158 64.2083C115.645 64.2083 115.133 64.0984 115.133 63.5124C115.133 62.5967 116.378 62.9263 116.927 61.3147L123.887 41.2422C124.326 39.9236 123.374 39.9602 123.374 39.2643C123.374 38.7515 123.704 38.5684 124.253 38.5684H129.637C130.223 38.5684 130.553 38.7515 130.553 39.2643C130.553 40.0701 129.344 39.9602 129.857 41.2422L137.696 61.4978C138.245 62.9263 139.307 62.6699 139.307 63.5124C139.307 64.1351 138.941 64.2083 137.915 64.2083H133.52C132.678 64.2083 132.311 64.1351 132.311 63.5856C132.311 62.5234 133.593 62.9629 133.154 61.7176L132.494 59.8861C132.311 59.3734 132.018 59.3001 131.542 59.3001H122.678C122.312 59.3001 121.872 59.41 121.689 59.8129L121.359 61.0949C120.81 63.2193 121.909 62.3403 121.909 63.5856C121.909 64.1351 121.359 64.2083 120.297 64.2083H116.158ZM123.557 55.6739H130.443C130.883 55.6739 130.956 55.271 130.81 54.868L127.183 44.7586C127.037 44.3557 126.707 44.3923 126.597 44.7219L123.044 55.0146C122.898 55.4541 123.118 55.6739 123.557 55.6739Z" fill="#F8F8F8"/>
<path d="M93.7585 64.2084C92.8062 64.2084 92.037 64.1718 92.037 63.6223C92.037 62.6334 93.612 63.1828 93.612 60.4357V42.1214C93.612 39.5208 91.9271 40.2167 91.9271 39.2278C91.9271 38.4952 92.5498 38.5684 93.905 38.5684H106.102C110.681 38.5684 114.783 40.6929 114.783 46.9197C114.783 52.2309 111.89 55.7838 105.59 55.7838H99.033C97.8975 55.7472 97.9342 55.8937 97.9342 56.5164V60.2525C97.9342 63.1095 99.4359 62.7799 99.4359 63.659C99.4359 64.245 98.8865 64.2084 98.0807 64.2084H93.7585ZM98.5568 51.6082H105.37C108.923 51.6082 110.534 49.8866 110.534 46.9564C110.534 43.9162 108.263 42.5976 105.15 42.5976H99.1063C97.9708 42.5976 97.9342 42.6342 97.9342 44.2459V50.546C97.9342 51.1686 97.8609 51.6082 98.5568 51.6082Z" fill="#F8F8F8"/>
<path d="M66.7106 64.2083C65.6118 64.2083 65.099 64.1717 65.099 63.549C65.099 62.9263 66.7473 62.8164 66.7473 61.0583L66.7839 41.4986C66.7839 39.9602 65.4286 39.9969 65.4286 39.1544C65.4286 38.6416 66.0147 38.5684 66.9304 38.5684H86.49C86.9296 38.5684 87.5889 38.6416 87.5889 39.2277C87.5889 40.2533 86.2336 39.7771 86.2336 41.6085L86.2702 61.0583C86.2702 62.9996 87.9185 62.8897 87.9185 63.6955C87.9185 64.2083 86.8563 64.2083 86.2702 64.2083H81.9847C80.8859 64.2083 80.3731 64.1717 80.3731 63.549C80.3731 62.9263 82.0213 62.8164 82.0213 61.0583L82.058 43.0737C82.058 42.5975 81.8016 42.3045 81.2521 42.3045H71.802C71.2159 42.3045 70.9962 42.6341 70.9962 43.2202V61.0583C70.9962 62.9996 72.6444 62.8897 72.6444 63.6955C72.6444 64.2083 71.5822 64.2083 70.9962 64.2083H66.7106Z" fill="#F8F8F8"/>
</svg>
